<svg class="thumb" width="473" height="347" viewBox="0,0,460,334" xmlns="http://www.w3.org/2000/svg" xmlns:inkscape="http://www.inkscape.org/namespaces/inkscape" xmlns:sodipodi="http://sodipodi.sourceforge.net/DTD/sodipodi-0.dtd" xmlns:xlink="http://www.w3.org/1999/xlink" xmlns:ns1="http://www.inkscape.org/namespaces/inkscape" xmlns:sketch="http://www.bohemiancoding.com/sketch/ns" data-guid="b32f3005-a778-4a3e-80a4-5f9757a529ac">
	<defs></defs>
		<g>
			<g transform="matrix(-0.343,-0.1901,0.1901,-0.343,222.0241,348.5829)">
				<svg width="510" height="443.015" viewBox="-5,25.16,510,443.015" class="thumb">
					<defs>
						<linearGradient x1="0" y1="0.5" x2="1" y2="0.5" id="linearGradientSkb95yuvomx">
							<stop offset="0%" stop-color="#31e8e8" stop-opacity="0.6"></stop>
							<stop offset="100%" stop-color="#31e8e8" stop-opacity="0.6"></stop>
						</linearGradient>
					</defs>
					<g></g>
					<g>
						<polygon points="125,463.175 0,246.667 125,30.16 374.999,30.16 500,246.667 374.999,463.175 " fill="url('#linearGradientSkb95yuvomx')"></polygon>
					</g>
				</svg>
			</g>
			<g transform="matrix(-0.343,-0.1901,0.1901,-0.343,220.8381,249.5089)">
				<svg width="510" height="443.015" viewBox="-5,25.16,510,443.015" class="thumb">
					<defs>
						<linearGradient x1="0" y1="0.5" x2="1" y2="0.5" id="linearGradientSkb95yuvon3"><stop offset="0%" stop-color="#31e89f" stop-opacity="0.6"></stop><stop offset="100%" stop-color="#31e89f" stop-opacity="0.6"></stop></linearGradient></defs><g></g><g><polygon points="125,463.175 0,246.667 125,30.16 374.999,30.16 500,246.667 374.999,463.175 " fill="url('#linearGradientSkb95yuvon3')"></polygon></g></svg></g><g transform="matrix(-0.343,-0.1901,0.1901,-0.343,304.3961,296.1999)"><svg width="510" height="443.015" viewBox="-5,25.16,510,443.015" class="thumb"><defs><linearGradient x1="0" y1="0.5" x2="1" y2="0.5" id="linearGradientSkb95yuvon9"><stop offset="0%" stop-color="#31c6e8" stop-opacity="0.6"></stop><stop offset="100%" stop-color="#31c6e8" stop-opacity="0.6"></stop></linearGradient></defs><g></g><g><polygon points="125,463.175 0,246.667 125,30.16 374.999,30.16 500,246.667 374.999,463.175 " fill="url('#linearGradientSkb95yuvon9')"></polygon></g></svg></g><g transform="matrix(0.5,0,0,0.5,191.15,72.5)"><svg width="227.39999999999998" height="374" style="overflow: visible;"><defs><linearGradient x1="0" y1="0.5" x2="1" y2="0.5" id="linearGradientSkb95yuvonh"><stop offset="0%" stop-color="#000000"></stop><stop offset="100%" stop-color="#000000"></stop></linearGradient></defs><g transform="matrix(1,0,0,1,0,235.5)"><path d="M 25.4 0L 25.4 0L 10.5 0Q 8.6 0  7.75-0.85Q 6.9-1.7  6.9-3.6L 6.9-3.6L 6.9-68.4Q 6.9-70.3  7.75-71.15Q 8.6-72  10.5-72L 10.5-72L 26.6-72Q 28.2-72  29.25-71.3Q 30.3-70.6  31.2-69L 31.2-69L 40.2-52.7Q 40.7-51.8  41.05-51.4Q 41.4-51  42-51L 42-51L 42.9-51Q 43.5-51  43.85-51.4Q 44.2-51.8  44.7-52.7L 44.7-52.7L 53.6-69Q 54.5-70.6  55.55-71.3Q 56.6-72  58.2-72L 58.2-72L 74.4-72Q 76.3-72  77.15-71.15Q 78-70.3  78-68.4L 78-68.4L 78-3.6Q 78-1.7  77.15-0.85Q 76.3 0  74.4 0L 74.4 0L 59 0Q 57.1 0  56.25-0.85Q 55.4-1.7  55.4-3.6L 55.4-3.6L 55.4-38.8L 49.5-27.9Q 48.6-26.2  47.35-25.45Q 46.1-24.7  44.2-24.7L 44.2-24.7L 40.2-24.7Q 38.3-24.7  37.05-25.45Q 35.8-26.2  34.9-27.9L 34.9-27.9L 29-38.8L 29-3.6Q 29-1.7  28.15-0.85Q 27.3 0  25.4 0ZM 121.9-54L 114.4-54L 114.4-41.2L 121.9-41.2Q 124.5-41.2  125.4-42.55Q 126.30000000000001-43.9  126.30000000000001-45.9L 126.30000000000001-45.9L 126.30000000000001-49.3Q 126.30000000000001-51.3  125.4-52.65Q 124.5-54  121.9-54L 121.9-54ZM 110.80000000000001 0L 110.80000000000001 0L 95.4 0Q 93.5 0  92.65-0.85Q 91.80000000000001-1.7  91.80000000000001-3.6L 91.80000000000001-3.6L 91.80000000000001-68.4Q 91.80000000000001-70.3  92.65-71.15Q 93.5-72  95.4-72L 95.4-72L 128.7-72Q 139.9-72  144.15-67.35Q 148.4-62.7  148.4-55.3L 148.4-55.3L 148.4-50.7Q 148.4-46.5  147.15-43.55Q 145.9-40.6  142.8-39.3L 142.8-39.3Q 148.2-38.7  151.55-34.9Q 154.9-31.1  154.9-24.8L 154.9-24.8L 154.9-3.6Q 154.9-1.7  154.05-0.85Q 153.2 0  151.3 0L 151.3 0L 135.8 0Q 133.9 0  133.05-0.85Q 132.2-1.7  132.2-3.6L 132.2-3.6L 132.2-18.9Q 132.2-21.1  131.35000000000002-22.15Q 130.5-23.2  128.4-23.2L 128.4-23.2L 114.4-23.2L 114.4-3.6Q 114.4-1.7  113.55000000000001-0.85Q 112.7 0  110.80000000000001 0ZM 185.20000000000002 0L 185.20000000000002 0L 169.70000000000002 0Q 167.8 0  166.95000000000002-0.85Q 166.10000000000002-1.7  166.10000000000002-3.6L 166.10000000000002-3.6L 166.10000000000002-68.4Q 166.10000000000002-70.3  166.95000000000002-71.15Q 167.8-72  169.70000000000002-72L 169.70000000000002-72L 200.3-72Q 213.90000000000003-72  218.90000000000003-66.6Q 223.90000000000003-61.2  223.90000000000003-52.5L 223.90000000000003-52.5L 223.90000000000003-39.7Q 223.90000000000003-31  218.90000000000003-25.6Q 213.90000000000003-20.2  200.3-20.2L 200.3-20.2L 188.8-20.2L 188.8-3.6Q 188.8-1.7  187.95000000000002-0.85Q 187.10000000000002 0  185.20000000000002 0ZM 197.60000000000002-53.3L 188.60000000000002-53.3L 188.60000000000002-38.2L 197.60000000000002-38.2Q 200.5-38.2  201.40000000000003-39.7Q 202.3-41.2  202.3-43.1L 202.3-43.1L 202.3-48.4Q 202.3-50.3  201.40000000000003-51.8Q 200.5-53.3  197.60000000000002-53.3L 197.60000000000002-53.3Z" data-textpath="MRP" data-text-anchor="middle" data-font-size="100" data-letterspacing="0" data-side="left" data-offset="0.5" data-dx="0" data-dy="0" data-xmlspace="preserve" data-href="" data-font="Bungee" data-font-src="/Content/clientfonts/bungee.woff" data-font-scale="contain" transform="translate(0,0)" data-x="0" data-y="0" fill="url('#linearGradientSkb95yuvonh')"></path></g></svg></g><g transform="matrix(0.5,0,0,0.5,195,121.5)"><svg width="0" height="374" style="overflow: visible;"><defs><linearGradient x1="0" y1="0.5" x2="1" y2="0.5" id="linearGradientSkb95yuvono"><stop offset="0%" stop-color="#000000"></stop><stop offset="100%" stop-color="#000000"></stop></linearGradient></defs><g transform="matrix(1,0,0,1,0,235.5)"><path d="" data-textpath="" data-text-anchor="middle" data-font-size="100" data-letterspacing="0" data-side="left" data-offset="0.5" data-dx="0" data-dy="0" data-xmlspace="preserve" data-href="" data-font="Bungee" data-font-src="/Content/clientfonts/bungee.woff" data-font-scale="contain" transform="translate(0,0)" data-x="0" data-y="0" fill="url('#linearGradientSkb95yuvono')"></path></g></svg></g></g></svg>